<?xml version="1.0" encoding="UTF-8" standalone="no"?>
<!DOCTYPE svg PUBLIC "-//W3C//DTD SVG 1.1//EN"
 "http://www.w3.org/Graphics/SVG/1.1/DTD/svg11.dtd">
<!-- Generated by graphviz version 2.38.0 (20140413.2041)
 -->
<!-- Title: G Pages: 1 -->
<svg width="273pt" height="204pt"
 viewBox="0.00 0.00 273.00 204.00" xmlns="http://www.w3.org/2000/svg" xmlns:xlink="http://www.w3.org/1999/xlink">
<g id="graph0" class="graph" transform="scale(1 1) rotate(0) translate(4 200)">
<title>G</title>
<polygon fill="white" stroke="none" points="-4,4 -4,-200 269,-200 269,4 -4,4"/>
<g id="clust1" class="cluster"><title>cluster_Global</title>
<path fill="none" stroke="gray" d="M20,-8C20,-8 245,-8 245,-8 251,-8 257,-14 257,-20 257,-20 257,-176 257,-176 257,-182 251,-188 245,-188 245,-188 20,-188 20,-188 14,-188 8,-182 8,-176 8,-176 8,-20 8,-20 8,-14 14,-8 20,-8"/>
<text text-anchor="middle" x="132.5" y="-175.2" font-family="Times New Roman,serif" font-size="11.00" fill="gray">Global</text>
</g>
<!-- \\DBPDO -->
<g id="node1" class="node"><title>\\DBPDO</title>
<polygon fill="none" stroke="black" points="234,-160 180,-160 180,-124 234,-124 234,-160"/>
<text text-anchor="middle" x="207" y="-139.2" font-family="Courier,monospace" font-size="11.00">DBPDO</text>
</g>
<!-- \\Usuario -->
<g id="node2" class="node"><title>\\Usuario</title>
<polygon fill="none" stroke="black" points="239,-106 175,-106 175,-70 239,-70 239,-106"/>
<text text-anchor="middle" x="207" y="-85.2" font-family="Courier,monospace" font-size="11.00">Usuario</text>
</g>
<!-- \\UsuarioPDO -->
<g id="node3" class="node"><title>\\UsuarioPDO</title>
<polygon fill="none" stroke="black" points="249,-52 165,-52 165,-16 249,-16 249,-52"/>
<text text-anchor="middle" x="207" y="-31.2" font-family="Courier,monospace" font-size="11.00">UsuarioPDO</text>
</g>
<!-- \\UsuarioDB -->
<g id="node4" class="node"><title>\\UsuarioDB</title>
<polygon fill="none" stroke="black" points="93,-52 16,-52 16,-16 93,-16 93,-52"/>
<text text-anchor="middle" x="54.5" y="-31.2" font-family="Courier,monospace" font-size="11.00">UsuarioDB</text>
</g>
<!-- \\UsuarioPDO&#45;&gt;\\UsuarioDB -->
<g id="edge1" class="edge"><title>\\UsuarioPDO&#45;&gt;\\UsuarioDB</title>
<path fill="none" stroke="black" stroke-dasharray="1,5" d="M164.875,-34C145.828,-34 123.08,-34 103.276,-34"/>
<polygon fill="none" stroke="black" points="103.223,-30.5001 93.2226,-34 103.223,-37.5001 103.223,-30.5001"/>
</g>
</g>
</svg>
